<svg version="1.1" id="Layer_1" xmlns="http://www.w3.org/2000/svg" xmlns:xlink="http://www.w3.org/1999/xlink" x="0px" y="0px"
	 width="100%" viewBox="0 0 512 512" enable-background="new 0 0 512 512" xml:space="preserve">
<path fill="#000000" opacity="1.000000" stroke="none" 
	d="
M513.000000,332.531372 
	C510.271606,347.910645 505.370636,361.938354 496.088440,374.143250 
	C494.630188,376.060669 495.095703,377.780304 495.831696,379.737061 
	C509.778564,416.816803 486.287994,455.414459 448.626404,460.800415 
	C435.622467,462.660095 422.340729,461.491516 409.193542,461.173920 
	C404.661469,461.064453 401.558624,456.748108 401.695953,452.116089 
	C401.832092,447.524170 405.155975,443.836670 409.901398,443.726715 
	C418.726837,443.522064 427.562500,443.781555 436.389557,443.616089 
	C452.901642,443.306580 466.650085,437.496399 475.496857,422.837708 
	C490.672668,397.692200 476.033356,365.856873 446.990021,360.244263 
	C441.412872,359.166473 435.983765,359.518402 430.658691,360.662140 
	C425.566681,361.755859 421.845001,360.371918 418.757751,356.513733 
	C412.725830,348.975616 404.943604,344.817535 395.324402,343.721588 
	C392.381378,343.386261 389.672943,343.975372 386.936768,344.462341 
	C375.959747,346.415924 373.728333,345.257355 370.253784,334.320465 
	C366.054535,321.102356 358.224152,310.669525 346.749023,303.004700 
	C313.654114,280.898956 269.432007,297.003265 258.082855,335.163025 
	C256.304352,341.142975 255.908585,347.261658 255.407059,353.380859 
	C254.847656,360.206024 250.902756,363.653900 244.051453,362.390411 
	C233.343857,360.415771 222.926651,360.171112 212.888290,365.310303 
	C197.839722,373.014465 188.464111,390.153412 190.449554,406.635559 
	C192.541092,423.998474 205.979141,439.001251 222.903244,442.357178 
	C227.761795,443.320587 232.827118,443.574799 237.798615,443.583435 
	C285.282166,443.666016 332.765961,443.622223 380.249664,443.624634 
	C387.877533,443.625031 391.695831,446.946289 391.319366,453.184357 
	C391.049164,457.661835 387.922119,460.894287 383.404877,461.304718 
	C382.246277,461.409943 381.074310,461.391449 379.908508,461.391144 
	C329.592499,461.377655 279.276306,461.429535 228.960510,461.312439 
	C204.519119,461.255554 180.825607,442.578217 174.546616,418.779114 
	C172.511566,411.065765 172.511566,411.057953 164.673996,411.054352 
	C141.182037,411.043579 117.689651,411.127930 94.198257,411.010010 
	C65.942200,410.868164 41.850693,401.049896 22.898027,379.687225 
	C10.950546,366.220581 4.279461,350.293518 1.142282,332.346191 
	C1.000000,324.312408 1.000000,316.624847 1.000000,308.468628 
	C3.710648,294.883484 7.360736,282.088898 15.144434,270.948181 
	C36.460323,240.438934 65.506401,226.501343 102.762840,230.563629 
	C106.243538,230.943146 108.751366,230.022766 111.163498,227.472107 
	C125.517639,212.293610 143.463806,205.010452 164.107269,204.034729 
	C167.571442,203.871002 171.176773,204.041595 174.532654,204.835983 
	C180.131500,206.161346 180.523758,202.734070 181.121399,198.661667 
	C176.091400,197.618210 171.275833,198.314392 166.505432,198.149261 
	C163.679764,198.051468 160.863312,198.186127 158.062744,197.491653 
	C152.804749,196.187805 150.252731,193.049713 150.545349,187.952118 
	C150.817581,183.209671 154.176895,179.888321 159.523285,179.760712 
	C168.184860,179.553955 176.858963,179.518600 185.518646,179.751068 
	C189.274155,179.851913 191.575134,178.644974 193.688751,175.458603 
	C206.554688,156.062805 223.868317,141.894455 245.151581,132.533569 
	C245.744843,132.272629 246.277252,131.873322 247.433319,131.183136 
	C243.008713,125.933517 237.464661,123.381531 231.191895,122.407921 
	C227.255280,121.796906 223.254837,122.030663 219.270401,122.850159 
	C211.514679,124.445312 207.321121,121.517441 206.632141,113.678131 
	C205.415176,99.831039 200.965454,87.816383 189.353226,79.150055 
	C166.742065,62.275146 134.263611,71.962814 124.793221,98.532822 
	C124.234360,100.100761 123.805138,101.715439 123.231033,103.277290 
	C121.200348,108.801781 117.264702,111.242348 111.510887,109.958061 
	C101.841194,107.799721 93.713287,110.014168 87.236359,117.649796 
	C84.172134,121.262192 80.613403,122.399872 75.724976,121.643501 
	C56.711994,118.701698 40.673237,131.618225 40.345947,149.725586 
	C40.059307,165.584045 53.236645,179.457199 69.112267,179.606705 
	C88.776634,179.791901 108.443909,179.676147 128.109924,179.673584 
	C130.625381,179.673264 133.081360,179.771240 135.410812,180.945984 
	C138.789230,182.649704 140.245285,185.526642 140.163483,189.083145 
	C140.080414,192.694885 138.269379,195.476288 134.845810,196.863434 
	C132.198227,197.936157 129.362366,198.143936 126.501343,198.140442 
	C108.835266,198.118866 91.168633,198.224609 73.503181,198.119888 
	C52.647350,197.996246 36.638065,189.711731 26.802612,170.588211 
	C14.435732,146.542709 28.032711,113.635994 53.812576,105.591278 
	C59.913326,103.687523 66.057518,102.457008 72.445885,102.755913 
	C74.949791,102.873062 76.940720,102.079773 78.784927,100.419479 
	C85.911057,94.004028 94.526192,91.208420 103.903259,90.774895 
	C107.024307,90.630600 108.619499,89.488579 109.992050,86.766945 
	C125.958275,55.107544 161.124832,43.459404 192.582016,59.756920 
	C208.149246,67.822083 218.189529,80.780563 222.333801,97.925514 
	C223.340836,102.091637 224.921921,103.633217 229.523651,103.868317 
	C243.709366,104.593025 255.455536,110.717972 264.128632,122.116325 
	C266.066406,124.662956 267.683533,125.501183 271.117340,124.982262 
	C311.513336,118.877487 346.465088,129.974930 375.630157,158.767715 
	C380.142548,163.222519 380.730713,168.588211 377.249786,172.505081 
	C373.765503,176.425705 368.336212,176.339081 363.443970,172.254730 
	C362.550354,171.508652 361.734894,170.667892 360.894806,169.858948 
	C341.255280,150.947632 317.788147,141.343781 290.540131,141.372162 
	C247.427048,141.417053 208.412918,170.975494 196.367981,212.483429 
	C195.997055,213.761673 195.677017,215.054794 195.299133,216.330872 
	C192.892197,224.458710 188.983246,226.828079 180.682709,224.623245 
	C164.145233,220.230515 148.690643,222.420959 134.296951,231.720978 
	C128.921295,235.194290 124.326012,239.584015 120.567719,244.709305 
	C117.088356,249.454208 113.020416,250.926102 107.165611,249.739410 
	C67.286110,241.656479 31.138256,264.077606 20.896917,303.017822 
	C10.164711,343.824432 39.694901,386.843933 81.657104,391.792480 
	C95.464569,393.420776 109.278610,392.396545 123.086731,392.612335 
	C137.915970,392.844116 152.752350,392.584412 167.583984,392.719147 
	C171.186096,392.751862 172.900879,391.584137 173.775482,387.915619 
	C180.171036,361.088806 204.042969,342.477722 231.718582,342.736450 
	C236.026352,342.776703 238.035599,341.972961 238.911118,337.042603 
	C245.664459,299.012634 282.200073,271.004456 320.558929,274.884094 
	C350.420349,277.904236 372.116730,293.256500 384.656158,320.806427 
	C386.246735,324.301025 388.057312,325.963348 392.105988,325.730743 
	C406.200623,324.920898 418.152771,330.068848 428.328674,339.620758 
	C429.735168,340.941071 431.158447,341.861633 433.174927,341.696625 
	C452.330353,340.129211 468.926941,346.039764 483.268555,359.545074 
	C489.861908,350.656799 493.433746,340.946381 494.440033,330.716827 
	C497.410522,300.519409 486.566498,276.483459 460.529633,260.164703 
	C443.909821,249.748154 425.784302,247.564804 406.775909,251.886597 
	C405.152496,252.255692 403.553619,252.767914 401.913635,253.022171 
	C395.774261,253.974030 390.842651,250.218979 390.763275,243.957077 
	C390.549164,227.070587 387.455994,210.917313 379.925232,195.673401 
	C378.010681,191.797897 377.557312,187.508209 380.855042,183.977173 
	C383.313232,181.345062 386.575806,180.730835 390.071106,181.699905 
	C393.245270,182.579941 394.894440,184.980270 396.302155,187.748947 
	C402.865814,200.658188 406.614227,214.389679 408.215820,228.719009 
	C408.539642,231.616028 409.172607,232.689606 412.482971,232.314636 
	C439.005096,229.310471 462.592163,236.205353 482.851410,253.815796 
	C499.508331,268.294891 509.016846,286.707336 512.865723,308.645813 
	C513.000000,316.687592 513.000000,324.375153 513.000000,332.531372 
z"/>
</svg>