<svg version="1.1" id="Layer_1" xmlns="http://www.w3.org/2000/svg" xmlns:xlink="http://www.w3.org/1999/xlink" x="0px" y="0px"
	 width="100%" viewBox="0 0 1024 1024" enable-background="new 0 0 1024 1024" xml:space="preserve">
<path fill="#000000" opacity="1.000000" stroke="none" 
	d="
M831.526306,538.173096 
	C841.249268,537.980774 849.143127,540.921021 853.581055,549.587708 
	C858.341370,558.884033 856.353210,568.098083 850.389709,575.876709 
	C846.875366,580.460754 848.398865,582.379272 851.987488,584.826172 
	C854.017456,586.210266 856.443787,587.171692 854.531494,590.615417 
	C851.589844,595.912903 849.414917,596.320190 845.258301,591.885864 
	C842.821106,589.285950 842.037720,585.740295 839.944702,582.740051 
	C835.902161,583.937988 831.929626,584.966248 827.691650,583.887329 
	C815.126221,580.688171 808.840820,569.546997 812.395020,556.379578 
	C813.130249,553.655701 814.234985,551.033081 815.128296,548.350098 
	C816.119019,545.374329 815.267883,542.959229 812.391907,541.742920 
	C809.617004,540.569275 807.447571,541.936584 806.220886,544.437439 
	C804.833191,547.266541 803.753723,550.247681 802.558228,553.170105 
	C800.920959,557.172302 799.552307,561.307861 797.617920,565.159973 
	C794.143127,572.079651 788.229614,575.636169 782.200195,574.907898 
	C774.363892,573.961304 767.845337,568.592407 765.851746,561.402222 
	C764.539490,556.669617 764.405762,551.953796 765.543091,547.109619 
	C767.538574,538.609924 770.150879,530.398193 775.751709,523.513855 
	C781.458618,516.499084 789.709229,514.853882 797.217896,518.784546 
	C802.638855,521.622437 802.917969,526.909912 803.783813,532.231140 
	C807.786621,531.884949 811.463440,529.832886 815.511841,531.775635 
	C819.845581,533.855408 819.970398,538.053162 821.448364,541.912415 
	C825.005310,541.335938 827.623718,538.534058 831.526306,538.173096 
M774.335388,550.758057 
	C774.332703,551.923035 774.273193,553.091187 774.337219,554.252502 
	C774.590027,558.833984 776.455566,562.424255 781.197571,563.490784 
	C786.148315,564.604248 788.576965,561.262024 790.145447,557.344971 
	C792.492554,551.483215 794.830994,545.592651 796.674500,539.561951 
	C798.427246,533.828369 796.835693,530.125916 792.616272,528.169739 
	C788.438782,526.232971 783.911560,527.893188 780.728760,532.705811 
	C777.275635,537.927246 775.508179,543.806152 774.335388,550.758057 
M826.847656,572.834839 
	C831.041931,574.859070 835.327454,575.903809 839.685120,573.441467 
	C844.639465,570.641846 847.821594,562.924011 846.419189,557.462524 
	C845.101807,552.332092 839.775146,548.486755 833.605469,548.212219 
	C828.005859,547.963135 824.062378,550.876343 821.805176,556.929382 
	C819.137512,564.083008 820.259949,568.095398 826.847656,572.834839 
z"/>
<path fill="#000000" opacity="1.000000" stroke="none" 
	d="
M818.572144,360.672913 
	C813.090759,362.807861 807.911560,364.665863 802.867676,366.838013 
	C799.902344,368.114990 797.924255,368.184753 796.774414,364.593933 
	C795.790222,361.520264 793.957642,358.493866 798.820862,357.097717 
	C799.750305,356.830902 800.616760,356.344666 801.562683,355.937988 
	C801.006714,353.937134 799.186279,354.078674 798.008606,353.429749 
	C780.598633,343.836334 778.627686,321.795563 794.389160,309.795319 
	C803.771851,302.651672 814.421387,298.093994 826.444885,299.602570 
	C844.158752,301.825195 853.878174,319.003021 847.363953,335.620972 
	C847.130066,336.217804 846.962280,336.840546 846.472473,338.346863 
	C855.278198,334.949890 863.442932,331.832550 871.581970,328.649231 
	C877.140991,326.475006 877.458374,326.746643 879.600037,331.984161 
	C881.178711,335.844940 879.117615,337.022400 876.173279,338.167511 
	C857.081604,345.592743 838.009705,353.068695 818.572144,360.672913 
M797.259460,321.876282 
	C792.601013,328.407501 793.431152,335.100403 797.090454,341.594238 
	C800.743103,348.076233 806.610718,350.548340 813.942993,349.802368 
	C822.155579,348.966888 829.400391,345.806885 835.487671,340.326660 
	C840.974792,335.386719 842.232605,328.131378 839.328918,321.104736 
	C836.216125,313.572144 831.046692,309.867798 823.196594,310.239258 
	C813.374756,310.704010 804.827271,314.441284 797.259460,321.876282 
z"/>
<path fill="#000000" opacity="1.000000" stroke="none" 
	d="
M165.203461,355.011719 
	C188.104614,352.805603 210.547485,350.630219 233.082382,348.445923 
	C232.741837,358.701721 231.876770,359.653229 223.138412,360.256531 
	C221.645187,360.359650 220.158035,360.563171 218.671326,360.746552 
	C207.063354,362.178680 207.071075,362.182404 204.397461,373.622772 
	C203.186600,378.804016 202.216278,384.063843 200.624176,389.126801 
	C199.264343,393.451202 199.910950,396.321442 204.211212,398.405731 
	C207.338150,399.921295 210.136124,402.107452 213.113174,403.942047 
	C220.444107,408.459534 220.827988,409.970734 216.475525,417.913177 
	C213.552109,417.573212 211.405914,415.561096 209.078217,414.087555 
	C187.832245,400.637848 166.683685,387.033966 145.408493,373.630981 
	C142.818481,371.999359 142.045853,370.229004 142.748642,367.483246 
	C143.284378,365.390167 143.911316,363.311523 144.290527,361.189423 
	C144.811066,358.276489 146.397705,357.010986 149.368912,356.778168 
	C154.508118,356.375458 159.621155,355.638947 165.203461,355.011719 
M182.549988,384.871887 
	C185.121948,386.294403 187.243256,388.564819 190.795761,389.226654 
	C193.194092,380.638306 195.615707,372.167328 196.854706,362.691803 
	C182.707977,364.170074 169.183990,364.701508 154.610901,367.259186 
	C164.526779,373.521393 173.226273,379.015442 182.549988,384.871887 
z"/>
<path fill="#000000" opacity="1.000000" stroke="none" 
	d="
M451.193573,776.846313 
	C457.259460,779.660095 463.063812,782.181885 468.751587,784.943848 
	C476.858368,788.880432 483.463898,794.102112 484.462036,804.005554 
	C485.574585,815.043945 479.656616,824.570068 468.919800,827.044678 
	C455.123138,830.224426 442.497375,827.463196 432.007599,817.360413 
	C429.136475,814.595154 428.649261,812.076172 432.109039,809.033875 
	C434.937469,806.546631 436.465637,806.697876 438.936371,809.521179 
	C445.905792,817.485229 454.961609,819.806152 465.143646,817.851624 
	C469.907013,816.937256 472.671448,813.598877 473.494171,808.955139 
	C474.340729,804.176941 472.902405,800.073242 468.822052,797.101562 
	C465.961426,795.018188 462.721436,793.709717 459.492249,792.363098 
	C454.114349,790.120361 448.628113,788.082031 443.785431,784.752563 
	C435.478302,779.041199 431.545654,771.490967 433.618530,761.193481 
	C435.676453,750.970032 441.515259,744.080200 451.728729,742.286499 
	C465.159058,739.927856 477.567291,742.817810 487.885101,752.365417 
	C489.855286,754.188538 491.448578,756.318604 492.605072,758.763977 
	C494.323456,762.397278 493.065552,765.424011 488.917572,767.552124 
	C485.257812,769.429688 484.758331,766.141174 483.591064,764.185242 
	C478.400879,755.488464 465.979126,749.685669 456.073822,751.541260 
	C450.117462,752.657166 446.339966,756.059998 444.865082,762.151733 
	C443.305450,768.593689 445.617188,773.176331 451.193573,776.846313 
z"/>
<path fill="#000000" opacity="1.000000" stroke="none" 
	d="
M845.779541,414.682190 
	C836.577698,413.171661 827.739136,415.449371 818.800049,415.568817 
	C816.087158,415.605042 816.784668,418.050140 816.912476,419.841217 
	C817.706482,430.969208 818.421875,442.103455 819.313293,453.223572 
	C819.611328,456.942047 818.108032,458.243164 814.498230,458.356812 
	C811.035706,458.465820 810.241516,456.647186 810.038208,453.809235 
	C809.277588,443.190216 808.473450,432.574280 807.671204,421.958282 
	C807.382935,418.143768 807.144531,414.322144 806.716064,410.522614 
	C806.350464,407.280670 807.340942,405.594208 810.880249,405.335785 
	C821.327454,404.572845 831.754761,403.542236 842.196655,402.700012 
	C856.453369,401.550110 870.742004,400.721863 884.961487,399.227539 
	C889.421753,398.758850 890.674805,400.329437 890.934753,404.126923 
	C891.707947,415.422058 892.503662,426.715637 893.317322,438.007935 
	C893.520569,440.828156 893.716309,443.656342 894.109680,446.453552 
	C894.586609,449.844727 893.318176,451.251038 889.840759,451.539764 
	C886.459229,451.820496 884.927490,450.922424 884.719360,447.370514 
	C884.154175,437.727905 883.275146,428.104004 882.676331,418.463013 
	C882.235352,411.363403 882.032654,410.979980 875.186340,411.281891 
	C870.033752,411.509125 864.893921,412.012146 859.743896,412.314148 
	C856.340393,412.513763 855.248169,414.065765 855.608521,417.527832 
	C856.572571,426.789124 857.136230,436.091339 857.980530,445.366241 
	C858.244446,448.265350 856.966431,449.275146 854.296021,449.352051 
	C851.590698,449.429993 848.937134,450.017639 848.693726,445.819305 
	C848.144409,436.343597 847.311523,426.884186 846.561096,417.420715 
	C846.496338,416.603973 846.188232,415.806549 845.779541,414.682190 
z"/>
<path fill="#000000" opacity="1.000000" stroke="none" 
	d="
M638.319214,183.747681 
	C626.203918,173.936722 622.671204,161.469528 625.573792,146.913513 
	C628.084900,134.320633 633.708679,123.397675 643.551941,114.880890 
	C661.344299,99.486191 693.352356,106.816582 701.908936,128.220642 
	C702.916687,130.741379 703.243286,133.308884 703.401794,135.997070 
	C703.597412,139.316650 702.373840,140.878296 699.008789,141.232483 
	C695.606873,141.590561 693.963745,140.856201 693.403259,136.988953 
	C691.734253,125.473312 683.398315,120.274696 673.243347,117.401627 
	C662.856750,114.463028 654.559692,118.584068 648.020691,126.339867 
	C641.596924,133.958908 637.398010,142.800522 635.797302,152.754883 
	C634.093933,163.348129 638.436096,172.565460 647.787842,178.125427 
	C658.402039,184.435989 665.719543,184.136505 675.298340,176.518524 
	C677.980774,174.385239 679.640259,174.281128 681.874329,176.958771 
	C684.018250,179.528488 684.627075,181.402191 681.876709,184.109268 
	C671.732422,194.093872 656.164734,195.170181 642.278687,186.545700 
	C641.009338,185.757324 639.826355,184.829834 638.319214,183.747681 
z"/>
<path fill="#000000" opacity="1.000000" stroke="none" 
	d="
M710.501465,721.686646 
	C718.154968,739.643677 712.519287,754.969666 695.876953,762.254883 
	C684.690308,767.151794 673.649414,764.477844 666.603577,754.569824 
	C656.769531,740.740967 658.996094,743.619507 669.784790,736.687195 
	C678.453857,731.116821 687.278992,725.789185 695.960022,720.400391 
	C691.879517,709.470032 681.074341,707.153015 673.951355,710.027649 
	C666.519043,713.027100 661.080688,717.862610 660.424316,726.363098 
	C660.142151,730.018188 657.997498,730.127808 655.318604,730.169739 
	C652.274353,730.217346 651.057190,728.493286 651.098389,725.809631 
	C651.141785,722.982788 651.630249,720.182556 652.677734,717.516663 
	C660.297607,698.122253 686.796936,692.745117 701.168396,707.711426 
	C705.006592,711.708496 707.966797,716.336060 710.501465,721.686646 
M700.044617,748.476501 
	C705.157349,741.799011 705.379150,733.801697 700.281311,728.371094 
	C692.025085,733.429138 683.687317,738.538147 675.348389,743.645264 
	C672.922607,745.130920 673.657654,746.730774 674.976562,748.600159 
	C680.854736,756.931763 690.252258,757.115906 700.044617,748.476501 
z"/>
<path fill="#000000" opacity="1.000000" stroke="none" 
	d="
M426.106201,135.748108 
	C423.677399,139.428711 419.737030,139.665298 416.413513,140.960800 
	C407.727905,144.346451 398.964844,147.544083 390.161285,150.611786 
	C386.184021,151.997696 385.924652,153.921738 388.027863,157.272156 
	C392.186127,163.896393 397.609467,168.052887 405.777344,166.640732 
	C413.564941,165.294296 420.281921,161.942978 422.363861,153.549652 
	C423.474152,149.073502 426.109222,150.302582 428.818268,150.746750 
	C432.077484,151.281143 432.159332,153.526337 431.482452,156.033157 
	C431.050629,157.632462 430.589203,159.254532 429.883636,160.744476 
	C421.324677,178.818283 393.902832,182.337708 381.627716,166.640228 
	C373.284729,155.971100 369.185059,143.739212 372.767761,130.115662 
	C375.613892,119.293022 386.910400,111.139702 398.649780,110.657234 
	C410.993591,110.149918 418.650360,115.268982 423.526550,127.348099 
	C424.579742,129.957016 425.982941,132.460419 426.106201,135.748108 
M382.982422,142.903534 
	C393.057983,140.787155 402.349030,136.372910 411.988373,132.980133 
	C413.543396,132.432816 413.689850,131.262451 413.262970,129.738358 
	C411.728943,124.261574 404.882874,119.160019 399.211395,119.684601 
	C388.134888,120.709129 378.319305,129.263382 382.982422,142.903534 
z"/>
<path fill="#000000" opacity="1.000000" stroke="none" 
	d="
M715.964966,677.982300 
	C712.011475,682.090637 710.293457,686.646179 711.292542,691.943665 
	C712.099182,696.220337 709.084229,696.516296 706.319885,697.075562 
	C702.722046,697.803467 702.179565,695.242798 701.797119,692.628540 
	C699.007568,673.558472 721.122681,655.403564 739.374939,662.317749 
	C752.737732,667.379822 761.736450,677.301514 765.353149,691.287170 
	C768.470154,703.340515 762.039124,715.738464 749.927185,722.518555 
	C740.270020,727.924500 729.648071,725.926208 720.384888,716.960632 
	C712.616272,709.441467 712.597473,709.345337 720.493347,702.052429 
	C727.468445,695.609802 734.521851,689.251709 741.484985,682.796204 
	C745.570068,679.008972 745.461243,678.257385 740.825562,674.983521 
	C732.082581,668.809082 724.881714,669.610046 715.964966,677.982300 
M753.749023,707.132751 
	C758.164673,699.098267 757.195068,691.562744 750.761597,686.403320 
	C743.015503,693.856201 734.377808,700.468689 727.369873,708.756042 
	C736.419434,718.446533 744.193237,718.002563 753.749023,707.132751 
z"/>
<path fill="#000000" opacity="1.000000" stroke="none" 
	d="
M253.764999,207.255615 
	C255.169998,200.385559 258.548981,195.170090 263.702179,191.115540 
	C271.734497,184.795685 280.752625,184.294174 288.351166,191.121323 
	C299.240417,200.905121 309.396149,211.504456 319.887939,221.732162 
	C323.052063,224.816635 319.911377,226.310562 318.340240,228.211914 
	C316.498016,230.441376 314.742188,231.371231 312.206970,228.794876 
	C304.380859,220.841797 296.388763,213.052032 288.462921,205.197067 
	C287.753174,204.493637 287.063507,203.769943 286.352020,203.068314 
	C279.662720,196.471466 274.158112,195.248566 268.781647,199.160400 
	C261.156158,204.708603 258.553955,213.326462 262.204132,221.032272 
	C263.938843,224.694382 266.499298,227.747360 269.350189,230.585129 
	C276.078491,237.282425 282.671234,244.122253 289.565704,250.643356 
	C292.542542,253.459000 291.522766,255.215942 289.174438,257.561096 
	C286.843719,259.888702 285.053589,260.965271 282.185974,258.084412 
	C263.388916,239.200516 244.511261,220.396103 225.536880,201.690536 
	C222.740372,198.933655 223.281998,197.253662 225.817413,194.797058 
	C228.364502,192.329132 230.191528,191.228333 233.120163,194.395233 
	C239.324921,201.104782 245.838928,207.528320 252.621246,214.473785 
	C254.231171,211.811157 253.422424,209.642990 253.764999,207.255615 
z"/>
<path fill="#000000" opacity="1.000000" stroke="none" 
	d="
M369.432007,777.415771 
	C357.643799,761.503662 370.346558,732.156677 384.419739,726.119812 
	C395.601135,721.323364 405.706146,723.976074 415.056061,730.406982 
	C424.118500,736.640137 427.589569,745.822266 426.042938,756.555115 
	C424.616180,766.456177 420.892761,775.630188 413.649750,782.740173 
	C401.481232,794.685059 381.386078,792.234741 369.432007,777.415771 
M387.769135,736.148193 
	C379.573944,742.582458 376.566986,751.700439 375.427856,761.439880 
	C374.427856,769.989685 378.784973,775.967651 387.060608,778.991699 
	C395.507721,782.078308 402.851562,780.153198 407.842377,773.252747 
	C411.386475,768.352783 413.507965,762.785889 414.895660,756.886963 
	C416.588654,749.690369 415.807007,743.117920 409.657501,738.425110 
	C403.235657,733.524414 396.143738,731.237488 387.769135,736.148193 
z"/>
<path fill="#000000" opacity="1.000000" stroke="none" 
	d="
M226.370087,623.670898 
	C203.212723,630.959778 184.905579,617.116516 185.637665,593.354492 
	C185.721664,590.628052 186.440872,588.103027 187.425507,585.630127 
	C192.888977,571.908630 215.149109,560.503296 229.416306,564.259155 
	C241.942337,567.556641 248.404221,576.633057 251.128998,588.582642 
	C253.796799,600.282349 249.068817,609.408875 239.888885,616.475159 
	C235.917206,619.532410 231.482834,621.846130 226.370087,623.670898 
M241.868713,591.704285 
	C239.785934,577.599243 229.785080,571.293152 216.366089,575.699890 
	C211.122025,577.422119 206.219177,579.875122 201.868179,583.313416 
	C195.991943,587.957031 193.936127,594.392212 195.969177,601.531311 
	C198.240356,609.506653 203.836746,614.715698 211.071945,615.588806 
	C219.684769,616.628235 235.838791,608.287170 240.075256,600.696594 
	C241.505142,598.134644 242.045258,595.435852 241.868713,591.704285 
z"/>
<path fill="#000000" opacity="1.000000" stroke="none" 
	d="
M720.793152,242.245575 
	C701.935120,224.762192 708.667542,204.500061 727.493164,190.732422 
	C746.225891,177.032730 770.859131,187.927567 774.638611,210.897919 
	C775.150085,214.006866 774.649475,216.898407 774.048279,219.767502 
	C771.257141,233.087585 755.588501,247.613098 742.155640,249.501602 
	C733.986877,250.650024 727.175110,247.586075 720.793152,242.245575 
M740.844360,239.511612 
	C750.437622,236.491028 757.086243,229.874313 762.020996,221.502289 
	C766.551819,213.815598 765.236755,206.645050 758.752808,200.218445 
	C752.508057,194.028931 744.848694,192.841125 737.346985,197.052002 
	C731.722900,200.208878 727.378784,204.785767 723.755127,210.049835 
	C719.715576,215.917984 718.060730,222.250870 721.824585,228.771271 
	C725.796082,235.651428 731.500366,240.161072 740.844360,239.511612 
z"/>
<path fill="#000000" opacity="1.000000" stroke="none" 
	d="
M752.926941,643.037659 
	C761.367493,649.026428 769.472473,654.871277 777.666870,660.588013 
	C785.014099,665.713623 789.620605,665.962036 794.420898,661.745972 
	C800.219421,656.653137 802.437378,647.679626 799.464905,641.288269 
	C797.510010,637.084900 794.325073,633.948914 790.635925,631.282227 
	C782.538269,625.428772 774.545532,619.416687 766.256104,613.847351 
	C761.999207,610.987305 764.358459,608.881592 766.062317,606.146484 
	C767.976135,603.074463 769.656555,603.204224 772.448303,605.239563 
	C786.845642,615.735901 801.318848,626.132568 815.937317,636.317627 
	C819.381897,638.717651 820.154602,640.366333 817.612671,644.173401 
	C814.737549,648.479431 812.605591,646.425781 809.992371,644.492798 
	C809.214417,643.917297 808.399963,643.391235 806.668213,642.200073 
	C810.386230,653.104126 807.622192,661.666260 800.615479,669.080322 
	C794.557251,675.490784 787.920715,676.961121 779.747375,673.606689 
	C777.296814,672.600891 774.851379,671.413757 772.690369,669.900269 
	C762.323914,662.639832 752.129944,655.131348 741.713440,647.944824 
	C737.905212,645.317383 739.679016,643.225037 741.406860,640.550049 
	C743.235291,637.719116 745.035583,636.912354 747.788147,639.313110 
	C749.286865,640.620300 751.008972,641.671387 752.926941,643.037659 
z"/>
<path fill="#000000" opacity="1.000000" stroke="none" 
	d="
M827.088013,477.223785 
	C822.204285,476.557404 817.772949,475.871979 813.324280,475.328979 
	C810.593933,474.995728 808.140808,474.420715 808.938904,470.878113 
	C809.572754,468.064850 808.940247,464.163757 814.095764,464.861725 
	C832.216919,467.315125 850.361328,469.596069 868.494934,471.957977 
	C871.620117,472.365051 873.151428,473.704742 872.480652,477.303192 
	C871.890137,480.471100 871.266785,482.865204 867.310059,482.193634 
	C866.019775,481.974640 864.701965,481.917908 862.623352,481.709381 
	C867.715637,487.271149 870.681763,492.995422 870.403564,500.298279 
	C869.814514,515.763550 860.764526,523.887939 845.351379,522.033875 
	C832.815063,520.525940 820.321411,518.653137 807.775330,517.239807 
	C803.082336,516.711182 803.417969,513.991882 803.623779,510.612305 
	C803.843445,507.006714 805.485535,506.137848 808.815796,506.599701 
	C820.168274,508.174133 831.568298,509.417603 842.903564,511.101349 
	C853.171509,512.626587 858.305481,510.599426 860.518799,503.518616 
	C863.484497,494.030914 859.807190,485.339203 850.962952,481.625671 
	C843.502319,478.493134 835.419617,478.319122 827.088013,477.223785 
z"/>
<path fill="#000000" opacity="1.000000" stroke="none" 
	d="
M340.103577,705.676758 
	C337.093842,713.553223 331.238831,718.963562 326.499451,725.142517 
	C321.740540,731.346924 316.651398,737.297180 311.838074,743.461182 
	C309.674835,746.231445 307.984192,748.226501 304.297241,745.036377 
	C301.115417,742.283386 300.471985,740.461609 303.434723,736.987305 
	C310.992676,728.124390 318.138000,718.909363 325.438751,709.827393 
	C331.514374,702.269470 332.078796,697.812134 327.662903,692.482971 
	C322.228546,685.924744 313.227631,684.150024 306.041840,688.152283 
	C300.471161,691.255005 296.978394,696.402222 293.106964,701.166870 
	C288.489471,706.849670 283.887878,712.549438 279.442261,718.366211 
	C277.075836,721.462585 275.018066,721.545898 272.060516,719.014648 
	C269.315674,716.665588 268.429657,715.029114 271.103455,711.775391 
	C282.409973,698.016785 293.417633,684.012878 304.571655,670.128418 
	C308.192383,665.621338 309.233734,665.841064 314.949860,672.058533 
	C314.863556,674.856628 311.768433,676.164307 311.214050,679.418579 
	C321.861633,676.811707 330.314148,680.410217 336.925415,688.461609 
	C340.962646,693.378296 342.445648,699.031799 340.103577,705.676758 
z"/>
<path fill="#000000" opacity="1.000000" stroke="none" 
	d="
M206.424118,553.540344 
	C195.698837,556.195435 185.352997,558.668457 175.057617,561.336182 
	C171.846466,562.168213 170.233368,561.651001 169.421555,558.063904 
	C168.680573,554.789795 168.563400,552.558289 172.445267,551.741333 
	C173.839127,551.448059 175.156982,550.793701 176.753433,550.215820 
	C165.423203,543.840515 159.593506,533.893799 160.892090,523.531128 
	C161.840179,515.965210 166.317841,510.979675 173.142883,508.461426 
	C187.376892,503.209564 202.360367,500.676483 217.055527,497.112640 
	C221.054474,496.142822 220.378189,499.977142 221.112106,501.998657 
	C221.935318,504.266205 222.171753,506.524170 218.740799,507.286255 
	C211.764084,508.835938 204.835541,510.605225 197.898193,512.328491 
	C192.416550,513.690186 186.907623,514.968445 181.489014,516.551453 
	C172.811584,519.086487 170.460419,522.235168 171.109665,529.835938 
	C171.824463,538.204102 177.253906,544.755920 184.488495,545.679199 
	C188.622742,546.206726 192.780594,546.100891 196.879272,545.082153 
	C206.235962,542.756470 215.640182,540.610596 224.947906,538.104980 
	C228.763107,537.077942 230.362595,538.200500 231.274216,541.927246 
	C232.155685,545.530762 231.586288,547.501221 227.636673,548.351929 
	C220.657745,549.855164 213.756668,551.719910 206.424118,553.540344 
z"/>
<path fill="#000000" opacity="1.000000" stroke="none" 
	d="
M784.731934,300.804016 
	C782.491333,302.295258 780.583557,303.638184 778.600464,304.858795 
	C776.069824,306.416473 773.931396,309.223907 770.862061,304.824921 
	C767.929749,300.622437 769.496704,298.651062 773.009766,296.651001 
	C773.570862,296.331543 774.031433,295.835663 774.554871,295.407990 
	C773.983704,293.729156 772.599060,294.433136 771.625305,294.287903 
	C761.415405,292.764923 752.763977,283.717133 751.580994,273.550751 
	C750.665894,265.686523 754.092529,259.813599 760.134216,255.578079 
	C771.577087,247.556061 783.344360,239.998245 794.903137,232.139160 
	C798.171143,229.917114 799.316528,232.319214 800.707947,234.375626 
	C802.211914,236.598557 804.003479,238.706772 800.487976,240.992859 
	C791.140320,247.071594 781.910522,253.331665 772.633728,259.519409 
	C771.664490,260.165924 770.682800,260.794342 769.726501,261.459381 
	C762.202576,266.691620 760.251465,271.668549 763.166382,278.166595 
	C766.608948,285.840973 773.840454,289.552612 781.901917,287.732788 
	C786.696716,286.650421 790.842896,284.156372 794.872070,281.489380 
	C801.948730,276.805145 809.096313,272.210724 815.959351,267.227753 
	C819.646545,264.550659 821.525208,265.497650 823.894287,268.940002 
	C826.327637,272.475586 825.056824,274.047882 822.045227,276.014404 
	C809.643494,284.112457 797.358948,292.389923 784.731934,300.804016 
z"/>
<path fill="#000000" opacity="1.000000" stroke="none" 
	d="
M214.232651,450.886200 
	C221.116852,463.480957 221.131805,475.715088 213.600174,487.585846 
	C210.466537,492.524811 207.719254,492.658691 203.950928,489.278412 
	C201.375031,486.967804 201.384064,485.059723 203.861237,482.650879 
	C209.862793,476.814880 210.837402,469.684113 208.685562,461.905426 
	C207.470932,457.514709 205.053711,454.367889 200.041870,454.362518 
	C195.098282,454.357208 192.394989,457.254944 191.316208,461.757263 
	C190.115982,466.766357 189.346985,471.882111 188.062576,476.867004 
	C185.364502,487.338440 179.411850,491.711700 169.027618,491.425232 
	C165.101379,491.316895 161.939041,489.804688 159.264771,487.092407 
	C151.707916,479.428375 150.650681,460.551208 157.377090,452.050079 
	C159.060379,449.922729 160.650406,447.060516 164.177063,449.933197 
	C167.116333,452.327423 168.103256,454.396362 165.257233,457.752808 
	C160.966736,462.812683 161.573868,468.971954 162.730713,474.923370 
	C163.446777,478.607208 165.702606,481.385864 169.835037,481.503510 
	C173.746613,481.614838 176.628494,479.626892 177.830170,475.918579 
	C179.003265,472.298340 179.729706,468.530762 180.595123,464.814545 
	C181.047150,462.873474 181.304642,460.886475 181.773819,458.950195 
	C183.490829,451.864380 187.009323,446.342468 194.654999,444.572815 
	C202.264313,442.811554 208.841507,444.453430 214.232651,450.886200 
z"/>
<path fill="#000000" opacity="1.000000" stroke="none" 
	d="
M491.002167,139.382935 
	C489.591766,154.543350 475.643005,161.619385 461.819153,160.571960 
	C447.171570,159.462128 437.162262,148.655396 434.736725,132.349686 
	C432.350433,116.307968 437.419525,104.319847 449.199341,98.146080 
	C459.958344,92.507317 474.400452,93.458908 481.698456,100.287407 
	C485.694855,104.026733 485.600708,105.430237 481.806580,109.125122 
	C479.627075,111.247589 478.133698,111.149361 476.031219,108.988495 
	C469.941345,102.729553 462.502502,102.855858 455.200104,105.916199 
	C448.178284,108.858963 445.388062,115.040520 445.256866,122.449257 
	C445.096649,131.496719 446.338806,140.157211 453.297089,146.809235 
	C461.533264,154.682922 476.611938,151.637329 481.220245,141.279068 
	C484.023315,134.978424 484.712219,134.816055 491.002167,139.382935 
z"/>
<path fill="#000000" opacity="1.000000" stroke="none" 
	d="
M217.475647,286.501770 
	C209.710724,278.002899 206.484406,268.552277 210.331985,257.738983 
	C214.029099,247.348648 220.515717,239.429565 232.014099,237.029846 
	C238.085693,235.762726 240.280228,237.403381 240.229355,242.740677 
	C240.201904,245.619522 239.062576,247.112274 236.101730,247.092331 
	C227.705353,247.035782 223.184372,252.239014 219.962936,259.113159 
	C216.662598,266.155701 219.007172,272.401062 223.820099,277.426727 
	C230.851212,284.768616 238.987076,290.846375 250.064377,288.843170 
	C261.332306,286.805511 267.526520,274.664337 262.854309,264.293640 
	C261.488678,261.262390 260.420471,259.200897 264.547089,257.206787 
	C268.941711,255.083191 270.207947,257.641663 271.693909,260.582123 
	C279.087311,275.212433 268.155914,296.063019 251.352982,299.264709 
	C237.657761,301.874237 227.216141,295.554657 217.475647,286.501770 
z"/>
<path fill="#000000" opacity="1.000000" stroke="none" 
	d="
M503.637085,109.116684 
	C503.628296,101.673798 503.640533,101.530563 496.574493,100.926971 
	C493.121277,100.631989 492.644714,98.756744 492.659332,95.906952 
	C492.674469,92.951691 493.886871,91.831055 496.835236,91.683907 
	C503.550812,91.348755 503.746674,91.223038 503.591248,84.226074 
	C503.506012,80.389542 504.661011,78.379440 508.628540,77.838882 
	C512.379883,77.327759 514.161743,78.196182 514.239624,82.392616 
	C514.413452,91.757553 514.575134,91.753387 524.037476,91.764175 
	C525.868408,91.766258 527.703918,91.868584 529.529175,91.771568 
	C532.851074,91.594994 534.352478,92.890266 534.343018,96.410698 
	C534.333252,100.055328 532.452515,101.010002 529.337646,100.980629 
	C525.842590,100.947678 522.343140,101.082680 518.852722,100.953201 
	C515.501282,100.828865 514.047974,102.129211 514.082397,105.616997 
	C514.185669,116.101891 513.940552,126.590836 514.091370,137.074463 
	C514.226990,146.491455 519.543335,150.033279 528.280518,146.108154 
	C532.680115,144.131653 533.897400,146.082275 535.122498,149.420639 
	C535.761902,151.163101 535.664307,152.516708 534.077454,153.815582 
	C527.653442,159.073654 513.299377,157.894180 507.717255,151.547623 
	C504.831055,148.266174 503.632629,144.381058 503.638123,140.057404 
	C503.651031,129.904053 503.639252,119.750664 503.637085,109.116684 
z"/>
<path fill="#000000" opacity="1.000000" stroke="none" 
	d="
M270.350952,664.324829 
	C272.512054,662.461182 274.461060,660.889709 276.287170,659.186401 
	C283.816193,652.164062 283.192413,646.431885 274.004883,641.680115 
	C270.519928,639.877686 270.439240,638.015747 271.893921,634.942505 
	C273.528900,631.488342 275.862457,632.128113 278.516693,633.289917 
	C293.784973,639.973206 296.088470,656.291138 283.395203,666.948547 
	C275.487396,673.588013 267.940369,680.658997 259.990662,687.245728 
	C257.003998,689.720337 257.015656,691.547852 259.562439,694.085449 
	C260.835205,695.353577 262.192902,696.663269 262.759216,698.805603 
	C260.781219,700.532715 259.670135,704.522766 256.067993,702.817444 
	C253.693771,701.693420 252.100952,698.918884 249.837860,696.547668 
	C247.284180,698.641357 244.844025,700.564636 242.490509,702.588745 
	C238.399918,706.106628 236.590469,701.878540 234.289230,700.048340 
	C231.496826,697.827515 234.104416,696.424744 235.507492,694.910339 
	C237.641739,692.606812 240.621964,691.174622 242.559708,688.031067 
	C239.253708,684.182678 236.050781,680.169922 232.534470,676.453735 
	C229.867065,673.634705 231.243927,671.937256 233.443954,669.873352 
	C235.858643,667.608032 237.467651,668.544312 239.214188,670.638733 
	C241.774460,673.708862 244.526535,676.620483 247.053299,679.716736 
	C248.824875,681.887573 250.368103,681.945190 252.445312,680.072876 
	C258.261108,674.830566 264.195007,669.719299 270.350952,664.324829 
z"/>
<path fill="#000000" opacity="1.000000" stroke="none" 
	d="
M328.083069,130.016357 
	C330.067352,133.293243 331.858856,136.266830 333.895752,139.647690 
	C338.641998,137.018951 343.186127,134.663040 347.560181,132.025070 
	C350.664429,130.152924 352.195587,131.287842 353.894989,134.049377 
	C355.858459,137.240112 354.218658,138.489594 351.757690,139.806595 
	C348.381927,141.613159 345.125336,143.651398 341.699615,145.352585 
	C338.990417,146.697922 338.538696,148.184753 340.112793,150.836807 
	C345.636017,160.142319 350.852875,169.630936 356.442139,178.895569 
	C361.268005,186.894882 367.304962,187.416534 373.112122,180.138962 
	C375.673004,176.929657 377.517181,176.334366 380.719482,178.964035 
	C384.076813,181.720947 382.141449,184.062561 380.379883,186.205719 
	C376.100616,191.412003 370.670929,194.758759 363.799469,195.358734 
	C357.408844,195.916733 352.823395,192.832596 349.700562,187.666351 
	C343.673279,177.695084 337.770905,167.640900 332.126160,157.449707 
	C330.038269,153.680222 328.037781,152.669724 324.434265,155.375687 
	C321.989899,157.211212 319.687408,158.149506 317.532288,154.415863 
	C315.476410,150.854187 316.806458,149.126221 319.916992,147.964752 
	C324.978424,146.074814 324.147125,143.341110 321.783142,139.617371 
	C318.172699,133.930191 319.090363,131.282593 324.600800,128.699280 
	C326.215515,127.942291 327.085938,128.428101 328.083069,130.016357 
z"/>
<path fill="#000000" opacity="1.000000" stroke="none" 
	d="
M721.931763,145.956543 
	C723.770813,143.352875 725.398865,141.037872 727.061462,138.747955 
	C730.122131,134.532303 734.971863,134.764557 737.565430,139.233902 
	C738.811584,141.381287 737.065674,142.665756 736.071899,144.069382 
	C723.373108,162.005188 710.634155,179.912521 697.907532,197.828583 
	C697.233337,198.777664 696.562500,199.729736 695.915527,200.697418 
	C693.535034,204.258408 693.770813,207.388260 697.833740,209.386810 
	C701.268188,211.076218 700.644714,213.127747 699.236450,215.862122 
	C697.666565,218.910187 695.709595,218.765213 693.086121,217.502777 
	C683.155945,212.724075 680.906921,203.873108 687.605469,194.309128 
	C698.876038,178.217102 710.348694,162.266571 721.931763,145.956543 
z"/>
<path fill="#000000" opacity="1.000000" stroke="none" 
	d="
M333.225952,756.267822 
	C340.148468,744.261902 346.889099,732.575562 353.620483,720.883911 
	C357.199005,714.668396 357.013977,713.372925 351.024841,709.249084 
	C348.033722,707.189514 349.955322,705.254211 350.602875,703.181274 
	C351.366699,700.736145 352.936493,700.317444 355.268524,700.992188 
	C365.242767,703.878235 369.583740,712.937744 364.631531,722.150635 
	C357.694763,735.055603 350.174561,747.647217 342.883545,760.361206 
	C338.575317,767.873779 334.133606,775.311646 329.941589,782.888062 
	C328.116974,786.185791 326.704437,788.250854 322.354858,785.717102 
	C317.870850,783.105103 318.840393,780.689575 320.922699,777.282715 
	C325.091217,770.462585 329.015289,763.493042 333.225952,756.267822 
z"/>
<path fill="#000000" opacity="1.000000" stroke="none" 
	d="
M199.981750,313.938416 
	C205.061295,319.032898 211.283066,321.489777 217.351028,324.206268 
	C224.030579,327.196472 230.677063,330.265961 237.418320,333.110382 
	C240.631149,334.466034 241.177872,336.184601 239.633240,339.287659 
	C238.194748,342.177490 237.335266,344.637024 233.137787,342.739594 
	C216.919708,335.408478 200.595078,328.312103 184.278412,321.201019 
	C181.014648,319.778564 179.002792,318.451904 180.836914,314.169342 
	C182.692886,309.835754 185.131210,310.414246 188.300949,311.921600 
	C188.887161,312.200409 189.532166,312.355560 191.177139,312.920502 
	C186.085022,304.893951 186.943390,297.525940 191.221741,290.438080 
	C192.637253,288.093018 193.795151,284.399231 197.931610,287.199921 
	C202.520508,290.306946 202.839172,291.587036 199.848587,295.754730 
	C195.299118,302.094849 195.273071,306.583862 199.981750,313.938416 
z"/>
<path fill="#000000" opacity="1.000000" stroke="none" 
	d="
M643.312500,737.787842 
	C648.440063,750.661133 653.368591,763.201843 658.514709,775.652649 
	C659.737305,778.610596 659.418030,780.303223 656.288086,781.406067 
	C653.595398,782.354797 650.926025,784.115601 649.480530,779.809204 
	C649.022522,778.444763 648.243042,777.188293 647.369629,775.384644 
	C645.339661,785.207825 639.131897,790.041687 630.248901,791.933960 
	C627.622986,792.493347 624.919189,792.514709 624.799988,788.866394 
	C624.706360,785.998047 623.242676,782.511597 628.356628,781.667358 
	C639.447266,779.836304 643.940430,772.771057 641.101318,761.875427 
	C638.154419,750.566101 632.714172,740.170227 628.640869,729.267456 
	C627.255066,725.558167 628.203491,723.928040 631.650452,722.422363 
	C635.014709,720.952881 636.852966,721.412109 638.126404,724.939697 
	C639.649963,729.160278 641.490051,733.266541 643.312500,737.787842 
z"/>
<path fill="#000000" opacity="1.000000" stroke="none" 
	d="
M217.778442,656.201782 
	C214.194534,652.534790 215.191238,650.354919 218.972549,647.826904 
	C233.503021,638.112732 247.876907,628.160889 262.188812,618.125916 
	C265.369568,615.895691 267.334686,615.501770 269.808899,619.180542 
	C272.101929,622.589844 271.892883,624.384521 268.430847,626.712524 
	C253.513641,636.742981 238.735901,646.982178 223.978348,657.247375 
	C221.536087,658.946167 219.615738,659.712891 217.778442,656.201782 
z"/>
<path fill="#000000" opacity="1.000000" stroke="none" 
	d="
M311.056335,186.920944 
	C306.480377,180.744263 302.249573,174.749786 297.717438,168.992538 
	C295.266235,165.878754 296.871216,164.411575 299.275360,162.618439 
	C301.763245,160.762833 303.721832,159.351425 306.229523,162.807236 
	C317.090027,177.773773 328.063324,192.659592 339.125641,207.477707 
	C341.786530,211.042023 339.253845,212.316666 337.015961,214.187729 
	C334.401794,216.373383 332.595123,216.264954 330.523743,213.373001 
	C324.218536,204.570038 317.707123,195.914749 311.056335,186.920944 
z"/>
<path fill="#000000" opacity="1.000000" stroke="none" 
	d="
M797.747314,590.166992 
	C809.224426,595.946106 820.357056,601.580933 831.528503,607.137817 
	C834.311951,608.522400 836.525696,609.720886 834.282349,613.465576 
	C832.457764,616.511414 831.428528,619.087463 826.869507,616.682800 
	C810.982727,608.303284 794.932739,600.224976 778.810913,592.304626 
	C774.616455,590.243896 775.433533,588.041809 776.940430,584.767578 
	C778.622681,581.112366 780.642151,581.330078 783.629272,582.976318 
	C788.143372,585.464050 792.813477,587.668884 797.747314,590.166992 
z"/>
<path fill="#000000" opacity="1.000000" stroke="none" 
	d="
M565.494446,755.983154 
	C561.593994,754.259827 560.273743,751.445618 560.742065,747.744934 
	C561.147217,744.542786 563.227173,742.753296 566.184143,741.957947 
	C570.391541,740.826172 574.247314,742.926697 575.246582,746.775635 
	C576.387634,751.170471 574.316589,754.779968 569.837341,755.910156 
	C568.585205,756.226013 567.209290,756.051025 565.494446,755.983154 
z"/>
<path fill="#000000" opacity="1.000000" stroke="none" 
	d="
M567.006042,152.148804 
	C568.730042,149.110474 571.054260,147.712097 574.173950,148.000565 
	C578.468994,148.397720 581.471436,151.716675 581.202209,155.584946 
	C580.914917,159.714264 577.695618,162.498505 573.444458,162.294296 
	C568.950012,162.078415 566.207092,159.040283 566.406433,154.438385 
	C566.434692,153.786377 566.694946,153.144409 567.006042,152.148804 
z"/>
<path fill="#000000" opacity="1.000000" stroke="none" 
	d="
M202.922470,658.718262 
	C207.895248,659.672852 209.723114,662.661560 209.261459,667.070374 
	C208.871109,670.798035 206.264771,672.601685 202.830170,672.889709 
	C198.939484,673.216125 196.650253,670.811523 195.516266,667.356567 
	C194.127274,663.124756 196.796021,659.914795 202.922470,658.718262 
z"/>
<path fill="#000000" opacity="1.000000" stroke="none" 
	d="
M294.798004,144.358978 
	C296.600586,149.852249 294.976288,153.568207 290.532013,154.920776 
	C286.765839,156.066986 282.844421,153.688934 281.866119,149.665543 
	C280.914093,145.750000 283.237030,142.053131 287.313751,141.049210 
	C290.449585,140.276978 292.750732,141.606812 294.798004,144.358978 
z"/>
<path fill="#000000" opacity="1.000000" stroke="none" 
	d="
M855.947327,625.688721 
	C852.290588,629.894653 848.627319,630.617981 845.464111,628.060913 
	C842.441162,625.617249 841.905212,621.526184 844.308838,618.254822 
	C846.405090,615.401733 849.213562,614.115662 852.555969,615.809692 
	C856.524780,617.821228 857.921570,621.053711 855.947327,625.688721 
z"/>
</svg>